#!OML:ASF F:\VICON\USERDATA\INSTALL\rory3\rory3.ASF
:FULLY-SPECIFIED
:DEGREES
305
root 0.160954 17.2827 26.6667 -2.12385 0.713987 5.70877
lowerback 5.85949 -0.953352 -5.30448
upperback 1.09913 -1.58041 0.705932
thorax -1.98609 -0.7572 3.82582
lowerneck -13.2847 -1.6813 -9.41926
upperneck 26.8135 -1.1439 3.98886
head 10.9298 -0.998626 2.9052
rclavicle 2.33572e-014 -1.59028e-015
rhumerus -32.844 -14.0341 -77.558
rradius 30.2178
rwrist 8.6229
rhand -13.2811 18.2626
rfingers 7.12502
rthumb 12.8222 -11.3236
lclavicle 2.33572e-014 -1.59028e-015
lhumerus -32.4867 7.52708 82.6729
lradius 30.0327
lwrist -11.7812
lhand -14.387 25.8245
lfingers 7.12502
lthumb 11.7559 55.4746
rfemur -31.1851 -7.69305 16.1896
rtibia 69.6546
rfoot -13.1227 -5.68306
rtoes -12.1015
lfemur -2.93947 -1.51377 -29.8131
ltibia 23.9655
lfoot -14.1073 0.792886
ltoes -3.39979
306
root 0.153881 17.2772 26.8468 -1.95914 0.831524 5.78538
lowerback 5.73831 -1.03662 -5.46261
upperback 1.17261 -1.69111 0.744724
thorax -1.82473 -0.818012 3.95813
lowerneck -13.4886 -1.70649 -9.4953
upperneck 26.7071 -1.14364 4.00899
head 10.9314 -0.999937 2.92376
rclavicle 2.09221e-014 -3.97569e-015
rhumerus -33.0368 -14.0502 -77.4922
rradius 29.9297
rwrist 9.0272
rhand -13.3969 18.3625
rfingers 7.12502
rthumb 12.7105 -11.2306
lclavicle 2.09221e-014 -3.97569e-015
lhumerus -31.7304 6.89826 82.7358
lradius 30.6038
lwrist -11.0507
lhand -14.765 25.5342
lfingers 7.12502
lthumb 11.3914 55.2048
rfemur -32.1847 -7.76983 16.3041
rtibia 68.0525
rfoot -13.6958 -6.19437
rtoes -14.3445
lfemur -2.25926 -1.60991 -29.9194
ltibia 23.6262
lfoot -14.5908 0.984248
ltoes -3.99156
307
root 0.138231 17.2685 27.0166 -1.80879 0.937772 5.66018
lowerback 5.808 -1.08 -5.56133
upperback 1.18797 -1.75539 0.887819
thorax -1.83309 -0.849652 4.16851
lowerneck -13.5534 -1.75502 -9.46809
upperneck 26.4741 -1.18217 3.90535
head 10.8602 -1.02119 2.87134
rclavicle 8.54774e-015 1.11319e-014
rhumerus -33.3346 -13.9761 -77.4243
rradius 29.7016
rwrist 8.7567
rhand -13.725 18.8069
rfingers 7.12502
rthumb 12.3942 -10.8057
lclavicle 8.54774e-015 1.11319e-014
lhumerus -31.0692 6.52116 82.7363
lradius 31.2031
lwrist -10.8507
lhand -14.8647 25.196
lfingers 7.12502
lthumb 11.2953 54.8718
rfemur -33.1046 -7.58455 16.6483
rtibia 66.2151
rfoot -13.5098 -6.63976
rtoes -10.8631
lfemur -1.53721 -1.85602 -29.7738
ltibia 23.0854
lfoot -14.8624 1.20169
ltoes -4.33928
308
root 0.126589 17.2645 27.1891 -1.74695 1.09446 5.69211
lowerback 6.00559 -1.1532 -5.71277
upperback 1.14167 -1.87451 0.918034
thorax -1.97198 -0.902823 4.30024
lowerneck -13.6768 -1.75407 -9.3334
upperneck 26.5391 -1.18747 3.84787
head 10.9075 -1.01792 2.82812
rclavicle 1.2275e-014 0
rhumerus -33.7216 -13.993 -77.381
rradius 29.2275
rwrist 8.12445
rhand -14.2211 20.0702
rfingers 7.12502
rthumb 11.9159 -9.57069
lclavicle 1.2275e-014 0
lhumerus -30.6308 5.99229 82.6178
lradius 31.849
lwrist -10.5572
lhand -14.9342 24.6465
lfingers 7.12502
lthumb 11.2282 54.326
rfemur -33.7989 -7.45617 16.7361
rtibia 64.1434
rfoot -13.1955 -7.15001
rtoes -6.83456
lfemur -0.608601 -2.02867 -29.7995
ltibia 22.3762
lfoot -14.9808 1.27226
ltoes -4.51133
309
root 0.115308 17.2633 27.3684 -1.62799 1.20483 5.76846
lowerback 6.20752 -1.2339 -5.89522
upperback 0.968271 -2.00998 0.950842
thorax -2.24141 -0.956182 4.45691
lowerneck -13.444 -1.71907 -9.37335
upperneck 26.3943 -1.15078 3.84318
head 10.8049 -1.00426 2.83476
rclavicle 4.47266e-016 7.95139e-016
rhumerus -34.3714 -14.0824 -77.1447
rradius 29.5901
rwrist 9.96359
rhand -13.4794 18.7761
rfingers 7.12502
rthumb 12.6311 -10.822
lclavicle 4.47266e-016 7.95139e-016
lhumerus -30.3796 5.54965 82.4802
lradius 32.4576
lwrist -10.1015
lhand -15.5308 24.5368
lfingers 7.12502
lthumb 10.6527 54.2468
rfemur -34.4785 -7.34743 16.7664
rtibia 61.9655
rfoot -13.3122 -7.69109
rtoes -7.82634
lfemur 0.416786 -2.15911 -29.8776
ltibia 21.454
lfoot -15.0204 1.37114
ltoes -4.19945
310
root 0.108316 17.262 27.5446 -1.30891 1.25516 6.05467
lowerback 6.13346 -1.29626 -6.23427
upperback 0.838879 -2.11479 0.935948
thorax -2.30996 -1.00029 4.64043
lowerneck -13.2738 -1.65231 -9.4259
upperneck 26.1937 -1.06578 3.86499
head 10.6904 -0.964533 2.85848
rclavicle -3.02153e-014 5.56597e-015
rhumerus -34.7679 -14.0958 -77.0287
rradius 28.8333
rwrist 8.83488
rhand -14.6816 22.2191
rfingers 7.12502
rthumb 11.4718 -7.44697
lclavicle -3.02153e-014 5.56597e-015
lhumerus -29.8897 5.33051 82.382
lradius 32.8972
lwrist -9.92513
lhand -16.0774 24.3549
lfingers 7.12502
lthumb 10.1255 54.0913
rfemur -35.3502 -7.21295 16.5371
rtibia 59.7023
rfoot -13.2242 -8.28271
rtoes -9.60647
lfemur 1.35926 -2.16228 -30.1888
ltibia 20.2795
lfoot -14.9323 1.39269
ltoes -3.99061
311
root 0.101577 17.261 27.7172 -1.00005 1.24975 6.51616
lowerback 5.88615 -1.31745 -6.66697
upperback 0.918923 -2.15512 0.784915
thorax -2.0731 -1.02807 4.71912
lowerneck -13.5924 -1.63405 -9.32757
upperneck 26.1826 -1.05859 3.96581
head 10.7464 -0.937083 2.88
rclavicle -1.98785e-015 7.95139e-016
rhumerus -34.9306 -13.9799 -77.2025
rradius 28.9105
rwrist 8.82715
rhand -14.3921 21.0369
rfingers 7.12502
rthumb 11.751 -8.61346
lclavicle -1.98785e-015 7.95139e-016
lhumerus -29.1116 5.0225 82.1778
lradius 33.3679
lwrist -9.71833
lhand -16.5689 23.618
lfingers 7.12502
lthumb 9.65128 53.3769
rfemur -36.1538 -6.93201 16.0722
rtibia 57.3306
rfoot -12.8186 -9.05163
rtoes -10.7687
lfemur 2.41904 -2.23489 -30.715
ltibia 18.9014
lfoot -14.7706 1.50943
ltoes -3.97959
312
root 0.0869463 17.2632 27.8987 -0.941861 1.23401 6.54332
lowerback 5.87532 -1.34897 -6.83028
upperback 0.955251 -2.20479 0.808669
thorax -2.01557 -1.05487 4.8381
lowerneck -13.5157 -1.63053 -9.23832
upperneck 26.0598 -1.07868 3.94579
head 10.686 -0.93776 2.85225
rclavicle -4.18442e-014 -7.95139e-015
rhumerus -35.3749 -13.9083 -77.2073
rradius 29.0762
rwrist 9.17033
rhand -13.9505 19.3934
rfingers 7.12502
rthumb 12.1769 -10.2322
lclavicle -4.18442e-014 -7.95139e-015
lhumerus -28.654 4.72782 81.9784
lradius 33.9885
lwrist -9.27972
lhand -16.8641 23.2226
lfingers 7.12502
lthumb 9.3665 52.9945
rfemur -36.496 -6.4977 16.0558
rtibia 54.7932
rfoot -12.3173 -9.81055
rtoes -9.84764
lfemur 3.84371 -2.26775 -30.7417
ltibia 17.3372
lfoot -14.556 1.58181
ltoes -4.01115
313
root 0.0719812 17.2688 28.0825 -0.813093 1.27778 6.51537
lowerback 5.88179 -1.4167 -6.96896
upperback 0.919723 -2.30269 0.921331
thorax -2.03276 -1.10108 5.04152
lowerneck -13.2706 -1.58192 -9.31287
upperneck 25.777 -1.00607 3.91341
head 10.5287 -0.910922 2.85636
rclavicle 1.42131e-014 -2.38542e-015
rhumerus -35.7389 -13.9773 -76.9994
rradius 29.114
rwrist 10.082
rhand -13.5916 19.0691
rfingers 7.12502
rthumb 12.5229 -10.5356
lclavicle 1.42131e-014 -2.38542e-015
lhumerus -28.271 4.51404 81.8889
lradius 34.6804
lwrist -8.72284
lhand -16.8616 23.3344
lfingers 7.12502
lthumb 9.36892 53.1062
rfemur -36.7529 -6.00264 16.0403
rtibia 52.1252
rfoot -11.7853 -10.4284
rtoes -8.95687
lfemur 5.27453 -2.25786 -30.6691
ltibia 15.6063
lfoot -14.3162 1.52297
ltoes -3.57339
314
root 0.0595172 17.2694 28.2622 -0.549303 1.40783 6.68449
lowerback 5.79134 -1.50523 -7.23912
upperback 0.900053 -2.43041 0.953864
thorax -1.97211 -1.16489 5.23307
lowerneck -13.3316 -1.57458 -9.38162
upperneck 25.6208 -0.979068 3.94246
head 10.4817 -0.8978 2.87904
rclavicle 3.71727e-014 -7.15625e-015
rhumerus -35.8164 -14.1535 -76.8067
rradius 28.6727
rwrist 10.368
rhand -13.351 19.0332
rfingers 7.12502
rthumb 12.7549 -10.5573
lclavicle 3.71727e-014 -7.15625e-015
lhumerus -27.7113 4.26719 81.7942
lradius 35.2287
lwrist -8.17311
lhand -17.6798 23.2748
lfingers 7.12502
lthumb 8.57939 53.0804
rfemur -37.0983 -5.66733 15.7788
rtibia 49.347
rfoot -11.1624 -10.8476
rtoes -9.12277
lfemur 6.53978 -2.17433 -30.795
ltibia 13.9215
lfoot -13.9999 1.38905
ltoes -4.13239
315
root 0.046539 17.2697 28.446 -0.334805 1.56309 6.69618
lowerback 5.61729 -1.62244 -7.29467
upperback 0.960971 -2.57327 0.990619
thorax -1.78659 -1.2452 5.30269
lowerneck -13.6861 -1.56513 -9.3691
upperneck 25.7115 -0.930489 3.93667
head 10.5806 -0.874831 2.88377
rclavicle 2.72335e-014 7.15625e-015
rhumerus -35.8724 -14.1805 -76.8151
rradius 28.2786
rwrist 10.072
rhand -13.4744 18.9639
rfingers 7.12502
rthumb 12.6359 -10.6339
lclavicle 2.72335e-014 7.15625e-015
lhumerus -26.935 4.15287 81.5659
lradius 35.6143
lwrist -7.81167
lhand -18.1881 22.8008
lfingers 7.12502
lthumb 8.08875 52.626
rfemur -37.2532 -5.29421 15.6763
rtibia 46.4942
rfoot -10.3065 -11.3954
rtoes -10.3658
lfemur 7.91061 -2.10894 -30.7483
ltibia 12.2245
lfoot -13.7466 1.26893
ltoes -5.01031
